 <svg version="1.0" xmlns="http://www.w3.org/2000/svg"  width="300.000000pt" height="300.000000pt" viewBox="0 0 300.000000 300.000000"  preserveAspectRatio="xMidYMid meet">  <g transform="translate(0.000000,300.000000) scale(0.100000,-0.100000)" fill="#000000" stroke="none"> <path d="M346 2465 c-12 -6 -22 -22 -24 -36 -2 -13 15 -214 38 -444 62 -643 57 -605 90 -605 10 0 21 -4 25 -10 3 -5 11 -7 18 -5 19 8 1548 225 1579 225 23 0 28 4 28 23 0 13 -16 187 -35 388 -19 200 -35 374 -35 387 0 16 -6 22 -22 22 -20 0 -20 -1 -5 -12 17 -13 28 -111 14 -125 -4 -3 -7 6 -7 22 0 16 -2 26 -5 23 -6 -6 19 -315 45 -543 15 -133 15 -132 -22 -139 -18 -3 -285 -37 -593 -76 -1023 -128 -954 -119 -934 -131 7 -4 34 -5 59 -2 31 4 42 2 35 -5 -15 -15 -106 -23 -122 -10 -15 12 -18 42 -3 33 14 -8 13 37 -5 201 -8 77 -21 225 -30 329 -8 105 -20 226 -26 270 -5 44 -12 97 -14 118 l-5 37 134 0 c98 0 136 3 139 13 3 6 6 8 6 2 1 -6 26 -9 61 -7 39 3 60 0 60 -7 0 -8 57 -11 182 -11 100 0 179 3 175 6 -3 3 -46 6 -96 6 -50 0 -93 4 -96 8 -3 5 64 9 149 9 92 1 157 -3 161 -9 3 -6 1 -10 -6 -10 -30 0 6 -15 39 -16 20 -1 32 0 25 3 -7 2 -9 11 -6 19 5 13 51 14 327 10 403 -6 241 4 -584 33 -322 12 -609 22 -639 24 -30 1 -64 -3 -75 -8z m962 -53 c2 -7 -3 -12 -12 -12 -9 0 -16 7 -16 16 0 17 22 14 28 -4z m-653 -982 c4 -6 -5 -10 -19 -10 -14 0 -26 5 -26 10 0 6 9 10 19 10 11 0 23 -4 26 -10z"/> <path d="M711 2383 c-1 -23 -3 -23 -148 -25 -143 -1 -145 -2 -53 -8 52 -3 119 -5 148 -4 45 1 52 -1 52 -17 0 -18 -11 -19 -147 -20 -82 -1 -140 -3 -130 -6 19 -5 24 -49 5 -55 -6 -2 -8 -10 -4 -16 5 -8 49 -12 145 -12 l138 0 6 -82 c6 -76 4 -98 -8 -86 -3 2 -8 39 -12 82 -3 47 -9 72 -14 64 -5 -7 -7 -20 -5 -28 3 -8 7 -44 11 -80 l6 -65 -118 -3 c-65 -2 -122 -8 -128 -14 -7 -7 29 -9 120 -4 99 5 131 10 138 21 18 34 29 14 25 -45 -3 -36 -1 -55 4 -48 6 8 8 -4 7 -32 -2 -25 0 -65 4 -90 3 -25 12 -105 18 -178 14 -151 36 -199 26 -56 -9 132 -26 314 -33 355 l-5 36 163 7 c90 4 210 14 268 21 l105 14 -170 -6 c-93 -3 -213 -8 -265 -12 -52 -4 -96 -7 -97 -6 -3 1 -33 314 -33 343 l0 22 343 -4 c239 -3 307 -2 227 4 -63 5 -209 11 -324 14 -115 4 -212 8 -214 11 -3 2 -13 0 -23 -5 -14 -8 -18 -6 -22 13 l-4 22 -2 -22z m-151 -94 c82 2 94 1 102 -11 6 -10 8 -8 8 5 0 11 8 17 21 17 15 0 19 -5 15 -15 -3 -8 0 -15 6 -15 7 0 7 -4 -1 -13 -6 -8 -8 -17 -4 -20 3 -4 -1 -7 -10 -7 -9 0 -16 5 -14 11 1 6 -26 11 -68 13 -47 3 -60 1 -40 -4 24 -6 22 -7 -14 -4 -24 2 -57 4 -72 4 -25 0 -29 4 -29 26 0 25 2 26 33 19 17 -4 48 -7 67 -6z"/> <path d="M880 2240 l-75 -6 100 -1 c64 -1 93 2 80 7 -11 5 -22 8 -25 7 -3 0 -39 -3 -80 -7z"/> <path d="M783 2183 c22 -6 22 -23 0 -23 -9 0 -14 -3 -10 -6 7 -8 297 -4 427 6 69 5 19 6 -142 3 -176 -4 -248 -2 -248 6 0 7 64 12 203 14 l202 2 -225 2 c-124 0 -217 -1 -207 -4z"/> <path d="M458 2140 c2 -22 8 -40 13 -40 5 0 9 18 9 40 0 26 -5 40 -13 40 -9 0 -11 -12 -9 -40z"/> <path d="M521 2157 c-10 -16 -11 -22 -2 -25 9 -3 9 -7 0 -18 -9 -11 -7 -14 9 -14 18 0 20 4 15 38 -7 46 -6 45 -22 19z"/> <path d="M560 2162 c1 -50 11 -62 56 -62 39 0 44 3 44 23 0 12 -4 18 -8 12 -4 -5 -22 -11 -39 -12 -27 -2 -33 2 -33 17 0 16 7 20 35 20 52 0 42 17 -10 18 -36 1 -45 -2 -45 -16z"/> <path d="M786 2122 c5 -4 56 -5 114 -2 l105 6 -114 2 c-63 1 -111 -1 -105 -6z"/> <path d="M810 2090 c-48 -10 107 -10 220 -1 81 8 79 8 -50 8 -74 0 -151 -3 -170 -7z"/> <path d="M513 2083 c9 -2 25 -2 35 0 9 3 1 5 -18 5 -19 0 -27 -2 -17 -5z"/> <path d="M798 2059 c-6 -4 -5 -9 3 -12 12 -4 11 -7 -1 -16 -18 -13 81 -13 230 -1 75 6 63 7 -57 3 -101 -3 -153 -1 -153 6 0 6 38 11 93 13 l92 3 -99 5 c-54 3 -103 2 -108 -1z"/> <path d="M1063 2063 c9 -2 25 -2 35 0 9 3 1 5 -18 5 -19 0 -27 -2 -17 -5z"/> <path d="M1198 2043 c18 -2 45 -2 60 0 15 2 0 4 -33 4 -33 0 -45 -2 -27 -4z"/> <path d="M545 1981 c-67 -5 -84 -8 -66 -15 18 -6 21 -10 10 -17 -10 -6 -8 -9 9 -9 13 0 21 4 17 9 -7 13 70 24 139 19 40 -2 56 1 56 10 0 13 -3 13 -165 3z"/> <path d="M2311 1966 c-14 -17 -2 -47 27 -68 35 -25 31 -33 -22 -36 -28 -1 -64 -6 -81 -11 -23 -7 -12 -9 52 -9 61 0 85 4 95 15 11 13 6 21 -26 48 -42 35 -44 60 -4 68 21 4 21 4 -3 6 -15 0 -32 -5 -38 -13z"/> <path d="M813 1933 c9 -2 25 -2 35 0 9 3 1 5 -18 5 -19 0 -27 -2 -17 -5z"/> <path d="M845 1910 c-29 -5 -3 -5 60 -3 61 3 112 7 114 9 7 6 -120 1 -174 -6z"/> <path d="M1763 1903 c15 -2 39 -2 55 0 15 2 2 4 -28 4 -30 0 -43 -2 -27 -4z"/> <path d="M1628 1893 c18 -2 45 -2 60 0 15 2 0 4 -33 4 -33 0 -45 -2 -27 -4z"/> <path d="M1980 1869 c0 -19 -4 -28 -11 -23 -6 3 -9 15 -6 25 3 12 0 19 -8 19 -8 0 -11 -8 -8 -21 4 -12 0 -25 -8 -30 -9 -6 4 -8 36 -8 28 1 42 3 32 6 -15 4 -18 12 -15 34 3 16 1 29 -4 29 -4 0 -8 -14 -8 -31z"/> <path d="M860 1880 l-55 -7 55 -1 c30 0 75 3 100 7 l45 8 -45 0 c-25 0 -70 -3 -100 -7z"/> <path d="M1330 1879 c-58 -4 -197 -13 -310 -20 -113 -6 -212 -16 -220 -20 -23 -13 84 -11 275 6 94 8 246 19 339 25 94 6 172 13 175 15 6 7 -133 4 -259 -6z"/> <path d="M1869 1858 c-3 -68 4 -173 12 -193 6 -13 8 11 4 68 -5 84 -4 87 16 87 15 0 19 4 15 16 -3 9 -6 24 -6 35 0 12 -7 19 -20 19 -16 0 -20 -7 -21 -32z m31 -3 c0 -8 -4 -15 -10 -15 -5 0 -10 7 -10 15 0 8 5 15 10 15 6 0 10 -7 10 -15z"/> <path d="M2425 1850 c28 -12 83 -12 90 0 4 6 -16 10 -52 9 -42 0 -52 -3 -38 -9z"/> <path d="M1290 1846 c0 -2 14 -6 30 -8 17 -3 30 -1 30 4 0 4 -13 8 -30 8 -16 0 -30 -2 -30 -4z"/> <path d="M1178 1833 c17 -2 47 -2 65 0 17 2 3 4 -33 4 -36 0 -50 -2 -32 -4z"/> <path d="M166 1735 c3 -55 9 -116 14 -135 11 -43 1 123 -11 190 -6 31 -7 13 -3 -55z"/> <path d="M1037 1823 c18 -2 50 -2 70 0 21 2 7 4 -32 4 -38 0 -55 -2 -38 -4z"/> <path d="M2180 1815 c-7 -9 -14 -38 -15 -66 -2 -28 -6 -53 -9 -56 -12 -12 -6 -51 9 -57 12 -4 15 0 14 17 -7 83 11 107 81 107 45 0 51 -3 65 -30 8 -16 15 -43 15 -60 0 -41 17 -38 22 5 2 19 1 35 -3 35 -4 0 -11 9 -14 20 -8 24 -47 52 -78 55 -48 5 -51 7 -21 14 16 4 80 6 141 3 l110 -4 -1 -27 c-2 -31 20 -61 44 -61 27 0 29 -9 10 -53 -16 -37 -16 -50 -5 -112 11 -67 10 -97 -3 -92 -4 1 -9 -2 -12 -8 -3 -5 7 -11 23 -13 15 -2 27 0 26 5 -1 4 -1 22 0 38 1 23 3 27 11 15 8 -12 10 -11 10 7 0 12 -3 29 -6 38 -5 13 -8 14 -15 3 -6 -9 -9 -4 -9 15 0 16 -4 36 -9 45 -5 10 -4 27 2 42 10 25 10 25 17 -10 6 -31 8 -28 9 23 1 55 2 57 22 47 56 -30 63 -160 12 -233 -19 -27 -38 -41 -72 -51 -37 -11 -42 -15 -27 -21 11 -5 34 0 61 13 77 37 114 151 83 253 -14 48 -42 79 -71 79 -17 0 -19 -2 -7 -9 9 -7 -1 -9 -30 -6 -40 3 -45 6 -45 26 0 18 8 26 33 34 21 6 32 15 32 28 0 16 -5 18 -32 11 -39 -8 -317 -8 -325 0 -11 11 -30 6 -43 -9z"/> <path d="M908 1813 c17 -2 47 -2 65 0 17 2 3 4 -33 4 -36 0 -50 -2 -32 -4z"/> <path d="M1085 1789 c-116 -10 -226 -18 -245 -19 -19 0 -30 -4 -23 -8 10 -7 48 -5 286 14 80 6 101 4 108 -7 7 -11 9 -11 9 4 0 13 9 17 43 18 23 0 51 4 62 9 18 8 18 9 -5 8 -14 0 -119 -9 -235 -19z"/> <path d="M1890 1778 c0 -7 5 -20 10 -28 8 -12 10 -11 10 7 0 12 8 24 18 26 10 3 6 5 -10 6 -17 1 -28 -4 -28 -11z"/> <path d="M2615 1759 c22 -11 49 -18 60 -16 18 3 18 4 -5 14 -14 5 -41 13 -60 16 l-35 6 40 -20z"/> <path d="M1696 1730 c2 -24 6 -46 9 -48 9 -9 5 63 -4 77 -6 10 -8 0 -5 -29z"/> <path d="M1901 1713 c-1 -26 15 -28 84 -13 38 8 37 9 -17 6 -45 -2 -58 1 -61 13 -3 10 -5 7 -6 -6z"/> <path d="M2796 1673 c9 -51 14 -54 14 -10 0 20 -5 39 -11 42 -7 5 -8 -5 -3 -32z"/> <path d="M2827 1673 c8 -52 13 -54 13 -5 0 23 -4 42 -9 42 -6 0 -7 -17 -4 -37z"/> <path d="M2862 1680 c0 -19 2 -27 5 -17 2 9 2 25 0 35 -3 9 -5 1 -5 -18z"/> <path d="M2719 1629 c4 -65 -7 -128 -20 -108 -7 11 -9 10 -9 -5 0 -11 -11 -34 -26 -53 -24 -31 -24 -33 -5 -33 34 0 74 64 79 125 5 57 -4 125 -16 125 -4 0 -5 -23 -3 -51z"/> <path d="M2147 1608 c-14 -52 -30 -215 -24 -241 18 -71 216 -103 416 -67 69 13 101 33 101 65 0 28 -8 30 -63 14 -49 -13 -77 -4 -77 26 0 13 -5 27 -12 31 -8 5 -9 2 -5 -10 4 -10 7 -24 7 -32 0 -25 44 -46 73 -35 18 7 28 7 33 0 3 -6 4 -12 3 -14 -9 -8 -238 -38 -279 -36 -52 2 -120 20 -120 32 0 5 -6 6 -14 3 -13 -5 -29 22 -25 42 1 5 -1 17 -6 27 -10 23 1 115 15 132 14 17 9 77 -6 82 -6 2 -14 -6 -17 -19z"/> <path d="M525 1610 c-18 -8 -18 -9 5 -9 14 0 32 4 40 9 12 8 12 10 -5 9 -11 0 -29 -4 -40 -9z"/> <path d="M840 1610 c-12 -8 -12 -10 5 -9 11 0 29 4 40 9 18 8 18 9 -5 9 -14 0 -32 -4 -40 -9z"/> <path d="M1105 1585 c-66 -9 -94 -9 -104 -1 -11 8 -13 8 -8 -1 5 -8 -15 -13 -67 -18 -40 -4 -79 -11 -87 -16 -9 -5 -1 -7 21 -4 19 3 112 12 205 21 94 9 177 20 185 25 21 12 -33 9 -145 -6z"/> <path d="M855 1580 c-17 -7 -15 -9 12 -9 17 -1 35 4 38 9 7 12 -22 12 -50 0z"/> <path d="M2800 1559 c-32 -6 -31 -6 15 -8 28 -1 61 -4 74 -8 16 -4 22 -2 18 4 -9 14 -63 20 -107 12z"/> <path d="M2940 1549 c0 -8 26 -19 46 -19 27 0 14 18 -16 22 -16 3 -30 1 -30 -3z"/> <path d="M153 1543 c-7 -2 -13 -17 -12 -31 l1 -27 7 25 c4 16 14 25 26 25 12 0 22 -9 26 -25 6 -23 7 -22 8 8 1 27 -2 32 -21 31 -13 0 -29 -3 -35 -6z"/> <path d="M587 1529 c-32 -4 -64 -12 -70 -19 -10 -10 -4 -11 28 -7 22 3 73 9 113 13 47 4 69 10 60 15 -14 9 -34 9 -131 -2z"/> <path d="M2036 1505 c-22 -8 -43 -12 -46 -10 -4 2 -83 5 -176 6 l-169 1 -9 -35 c-9 -34 -11 -35 -70 -42 -34 -3 -128 -20 -210 -36 -82 -16 -202 -36 -265 -45 -64 -8 -217 -31 -340 -50 -207 -32 -225 -33 -242 -18 -10 9 -16 21 -15 27 2 7 1 9 -1 5 -9 -16 -22 -7 -16 10 5 16 5 16 -8 0 -29 -35 -118 -58 -221 -58 -54 0 -98 3 -98 8 0 4 23 5 51 3 28 -1 72 1 97 5 42 7 35 9 -64 14 -82 4 -118 10 -138 23 l-27 18 3 -244 c3 -214 1 -244 -12 -239 -8 3 -19 11 -23 19 -4 7 -15 13 -23 13 -8 0 -12 -5 -9 -10 4 -6 11 -7 17 -4 7 5 9 1 5 -8 -8 -22 30 -30 93 -22 57 7 67 24 16 24 -39 0 -49 10 -50 52 -1 21 4 28 18 28 14 0 16 3 8 13 -12 14 -20 252 -10 263 4 3 2 17 -3 31 -8 22 -7 24 8 17 35 -15 255 -16 308 -1 28 8 57 16 65 18 13 3 16 -19 20 -146 3 -82 7 -118 8 -78 l2 72 38 7 c51 9 79 27 29 19 -21 -3 -45 -9 -53 -12 -18 -7 -20 73 -1 91 11 11 486 91 493 83 8 -8 -25 -91 -37 -95 -8 -2 -21 -6 -29 -9 -8 -3 -32 -6 -52 -7 -46 -3 -53 -9 -39 -33 8 -15 4 -20 -27 -34 l-37 -17 85 4 c47 3 102 6 123 8 20 2 37 1 37 -3 0 -4 18 -13 40 -20 57 -17 64 -36 39 -112 -12 -35 -30 -81 -40 -101 -10 -20 -20 -50 -20 -65 -1 -15 -3 -21 -6 -12 -4 15 -9 15 -50 3 -25 -8 -64 -14 -86 -14 -22 0 -38 -2 -36 -5 8 -7 112 -8 135 -1 14 4 23 2 27 -7 2 -7 -3 -13 -12 -14 -9 -1 -50 -6 -91 -12 -112 -17 -122 -12 -143 62 -10 34 -21 75 -24 90 -5 26 -4 28 21 21 14 -3 26 -2 26 2 0 5 35 9 78 10 78 1 186 26 198 46 5 8 1 9 -12 3 -84 -36 -303 -45 -369 -15 -44 20 -52 20 -101 3 -44 -15 -77 -42 -35 -28 34 11 24 -2 -24 -31 -25 -14 -50 -35 -56 -46 -6 -11 -17 -17 -25 -14 -9 4 -12 2 -8 -5 3 -6 15 -8 26 -6 13 4 29 -3 44 -18 l24 -24 -6 23 c-4 19 1 29 25 47 17 12 31 29 31 36 0 15 32 33 60 33 17 0 20 4 15 21 -6 18 -5 19 13 8 12 -7 20 -18 19 -23 -1 -6 7 -10 17 -11 11 0 22 -7 24 -15 4 -13 3 -13 -10 -2 -12 10 -18 10 -23 1 -6 -8 -9 -8 -15 1 -10 16 -66 4 -74 -15 -3 -10 2 -12 22 -9 15 3 28 7 31 9 2 2 16 -2 30 -10 28 -14 81 -100 81 -129 0 -16 -2 -16 -22 -2 -12 9 -41 16 -63 16 -26 0 -35 3 -27 9 11 7 11 9 -1 14 -16 6 -17 23 -4 45 5 7 18 10 34 6 18 -5 24 -3 19 5 -9 14 -41 14 -67 0 -13 -6 -17 -15 -12 -23 4 -6 0 -3 -9 7 -15 15 -18 16 -18 4 0 -8 12 -25 28 -37 20 -16 22 -20 7 -16 -20 6 -20 6 -1 -9 11 -8 36 -17 55 -20 20 -4 51 -13 69 -21 18 -8 43 -15 55 -16 12 0 2 -4 -23 -8 -38 -6 -32 -7 35 -7 51 0 67 2 45 6 -30 5 -21 8 54 19 133 19 199 52 189 93 -3 11 -16 27 -28 35 -20 13 -22 18 -12 44 14 36 36 38 103 9 69 -30 81 -41 57 -51 -44 -19 96 7 252 47 94 24 262 64 374 89 139 31 208 51 216 62 9 13 22 16 56 12 62 -8 110 10 150 57 18 22 29 37 25 33 -5 -4 -15 -1 -23 7 -8 8 -22 15 -31 14 -13 0 -12 -2 4 -9 36 -14 36 -28 2 -35 -62 -12 -72 -17 -58 -25 19 -12 -71 -24 -112 -15 -54 12 -83 26 -72 33 7 4 -2 14 -21 23 -25 12 -32 12 -28 2 3 -7 -2 -13 -11 -13 -13 0 -16 7 -11 33 6 39 35 264 35 278 0 5 11 9 24 9 31 0 56 10 56 21 0 12 -7 11 -54 -6z m-43 -22 c3 -5 -4 -71 -14 -148 -10 -77 -18 -143 -19 -147 0 -5 -9 -8 -19 -8 -15 0 -19 -7 -19 -29 1 -15 -2 -34 -7 -41 -6 -9 -3 -9 15 0 12 7 25 21 27 31 3 10 6 19 7 19 2 0 29 -11 61 -24 58 -24 83 -46 50 -46 -31 0 -332 -71 -558 -131 -38 -10 -101 -25 -140 -33 l-72 -15 -62 28 c-69 33 -107 66 -96 84 4 7 8 19 8 27 0 10 22 18 75 28 178 31 270 55 260 66 -10 13 13 143 33 186 15 31 30 34 135 25 l84 -7 -5 -46 c-3 -26 -9 -73 -13 -104 l-6 -57 -67 -4 -66 -3 72 -2 c83 -2 73 -15 93 118 6 41 13 85 16 98 4 20 1 22 -35 22 -66 0 -102 11 -97 29 2 9 7 33 11 54 l6 37 169 0 c93 0 171 -3 173 -7z m-370 -83 c-5 -17 -14 -20 -63 -20 -66 0 -61 9 -81 -127 l-12 -81 -44 -13 c-48 -13 -72 -34 -26 -23 15 4 36 11 45 15 10 5 19 5 23 0 7 -13 -137 -45 -202 -46 -28 0 -51 -4 -50 -10 4 -22 -54 -16 -84 9 -36 30 -35 31 21 11 73 -26 54 -10 -22 19 -114 43 -118 45 -125 61 -8 22 4 30 21 16 12 -10 15 -5 21 28 10 63 20 69 134 86 58 9 116 18 129 22 18 4 23 2 20 -8 -3 -8 3 -18 12 -24 10 -5 28 -17 41 -26 31 -22 69 -33 69 -20 0 5 -15 13 -32 17 l-33 8 45 7 45 6 -56 1 c-43 2 -58 6 -63 18 -13 34 3 53 52 60 26 4 79 12 117 19 101 18 104 18 98 -5z m-690 -212 c3 -10 7 -10 17 -1 10 9 19 7 41 -10 35 -25 37 -37 7 -36 -31 0 -111 34 -116 48 -5 15 45 14 51 -1z m178 -318 c26 -15 24 -35 -7 -59 -31 -24 -64 -29 -45 -8 9 12 17 40 20 70 1 10 9 9 32 -3z"/> <path d="M1602 1220 c0 -19 2 -27 5 -17 2 9 2 25 0 35 -3 9 -5 1 -5 -18z"/> <path d="M1835 1245 c6 -2 22 -6 38 -9 23 -6 26 -9 17 -26 -8 -16 -15 -17 -42 -9 -41 11 -98 12 -98 0 0 -4 28 -13 63 -19 34 -5 70 -13 80 -17 14 -6 17 -1 17 29 0 38 -20 57 -62 55 -13 0 -18 -2 -13 -4z"/> <path d="M1775 1158 c17 -6 41 -19 54 -29 26 -21 56 -25 66 -9 4 6 -8 10 -29 10 -19 0 -38 5 -41 10 -4 7 9 9 37 5 29 -4 37 -3 23 3 -11 5 -47 12 -80 15 -51 6 -56 5 -30 -5z"/> <path d="M1547 1153 c18 -2 50 -2 70 0 21 2 7 4 -32 4 -38 0 -55 -2 -38 -4z"/> <path d="M1470 970 c-20 -6 -21 -8 -5 -8 11 0 34 4 50 8 27 7 27 8 5 8 -14 0 -36 -4 -50 -8z"/> <path d="M1269 1274 c-13 -15 -44 -40 -69 -57 -41 -26 -42 -29 -15 -23 25 6 165 93 165 103 0 1 -13 3 -28 3 -18 0 -38 -10 -53 -26z"/> <path d="M1365 1450 c-9 -15 4 -30 27 -30 14 0 18 5 14 16 -3 9 -6 18 -6 20 0 8 -29 4 -35 -6z"/> <path d="M194 1369 c-72 -12 -110 -27 -97 -40 5 -5 40 -14 76 -20 100 -16 297 11 297 40 0 28 -162 39 -276 20z m154 -27 c11 -4 11 -6 0 -13 -16 -10 -149 -12 -174 -2 -16 6 -16 7 2 14 20 9 150 9 172 1z"/> <path d="M2041 1356 c-9 -11 -9 -16 0 -22 8 -4 9 -3 5 5 -4 7 2 15 16 20 15 7 17 10 7 10 -9 1 -22 -5 -28 -13z"/> <path d="M2053 1309 c-58 -22 -69 -39 -25 -39 15 0 38 -3 51 -7 20 -5 23 -3 18 11 -5 14 -3 15 13 6 27 -15 30 -13 30 20 0 36 -13 37 -87 9z"/> <path d="M2876 1323 c-4 -4 -31 -8 -59 -10 -29 -1 -90 -14 -137 -29 -63 -21 -106 -28 -167 -28 -45 0 -80 -2 -79 -3 1 -2 25 -7 52 -12 43 -8 68 -5 169 19 65 16 121 28 123 25 6 -6 -32 -20 -141 -52 l-92 -26 -133 18 c-87 11 -140 24 -155 35 -41 31 -63 32 -27 1 23 -19 51 -32 80 -36 25 -4 83 -13 130 -21 73 -12 95 -12 152 0 113 24 257 76 210 76 -7 0 -12 5 -12 10 0 6 25 10 55 10 42 0 55 3 55 15 0 16 -12 20 -24 8z"/> <path d="M2156 1285 c4 -8 7 -15 9 -15 1 0 8 7 15 15 10 13 9 15 -8 15 -15 0 -20 -5 -16 -15z"/> <path d="M2190 1247 c0 -10 5 -15 10 -12 6 3 10 -3 10 -14 0 -11 5 -23 11 -27 15 -9 1 36 -17 56 -12 12 -14 12 -14 -3z"/> <path d="M395 1239 c-12 -19 5 -23 22 -6 16 16 16 17 1 17 -9 0 -20 -5 -23 -11z"/> <path d="M2056 1225 c-14 -13 -26 -29 -26 -35 0 -14 9 -13 26 5 9 8 26 15 39 15 12 0 26 7 29 16 9 24 1 28 -17 9 -20 -19 -28 -19 -21 0 8 21 1 19 -30 -10z"/> <path d="M2141 1232 c-15 -27 -14 -29 9 -35 22 -6 27 16 11 42 -7 11 -11 10 -20 -7z"/> <path d="M195 1230 c3 -6 -4 -10 -17 -10 -25 0 -54 -48 -45 -72 3 -7 6 -4 6 8 1 30 34 56 67 52 33 -4 44 -27 16 -35 -42 -10 -43 -176 -3 -252 12 -24 20 -50 17 -57 -7 -17 -2 -17 54 0 42 14 43 15 14 15 -18 1 -39 10 -49 21 -18 20 -17 20 28 20 25 0 49 4 52 10 4 6 -12 9 -40 8 -61 -3 -76 14 -82 96 -5 52 -2 71 12 92 9 15 21 39 25 55 7 23 4 30 -16 43 -26 18 -48 21 -39 6z"/> <path d="M670 1193 c-31 -3 -40 -7 -30 -14 12 -7 11 -9 -4 -9 -11 0 -17 -2 -14 -5 2 -3 38 4 79 14 71 19 65 22 -31 14z"/> <path d="M2582 1188 c-43 -9 -43 -9 -36 -46 4 -20 10 -44 13 -52 11 -23 8 -33 -19 -68 l-26 -32 -56 30 -57 31 -76 -19 c-47 -12 -78 -15 -82 -9 -3 5 -10 2 -15 -7 -5 -9 -16 -16 -24 -16 -8 0 -12 4 -9 10 3 6 -1 7 -9 4 -9 -3 -13 -11 -10 -16 5 -7 -4 -9 -24 -6 -17 2 -29 1 -27 -3 8 -13 -39 -18 -54 -6 -17 14 -12 2 21 -45 19 -27 19 -28 1 -29 -10 -1 -24 -1 -30 0 -7 1 -13 -3 -13 -9 0 -5 -11 -10 -25 -10 -13 0 -36 -5 -50 -12 -19 -9 -28 -9 -37 0 -9 9 -7 12 8 14 33 2 39 3 49 10 6 3 26 9 45 13 35 8 35 8 10 17 -24 10 -24 11 -5 18 13 5 0 7 -37 6 -31 0 -55 -5 -55 -11 1 -5 -13 -9 -32 -8 -20 1 -29 -2 -22 -6 9 -6 4 -10 -13 -13 -15 -3 -29 -1 -32 3 -8 14 -24 11 -22 -3 2 -8 -9 -13 -29 -13 -17 0 -29 -3 -27 -6 2 -4 -5 -9 -16 -12 -11 -3 -23 -1 -26 4 -8 13 -24 11 -21 -3 1 -8 -8 -13 -20 -12 -13 0 -23 -4 -23 -9 0 -5 -13 -7 -29 -5 -17 2 -28 1 -25 -4 3 -4 0 -8 -7 -8 -9 0 -10 -3 -2 -11 8 -8 16 -7 30 2 13 7 28 9 39 4 18 -8 18 -8 -1 -12 -11 -2 -37 -9 -58 -15 -28 -9 -40 -9 -49 0 -9 9 -8 12 6 12 15 0 16 3 6 15 -7 8 -17 15 -23 15 -6 0 -7 -3 -4 -7 4 -3 2 -11 -3 -18 -7 -8 26 -37 117 -101 l126 -90 266 81 c146 45 341 103 433 130 93 28 168 53 168 56 0 4 -7 10 -16 13 -8 3 -12 2 -9 -3 11 -18 -36 -23 -61 -6 -20 13 -32 14 -61 6 -20 -6 -40 -8 -45 -5 -4 3 -8 1 -8 -5 0 -5 -15 -13 -32 -17 l-33 -7 33 -9 c33 -9 36 -28 4 -28 -9 0 -36 -7 -60 -15 -34 -12 -47 -13 -65 -3 -22 11 -22 12 8 20 17 5 42 6 57 4 21 -4 26 -2 21 10 -4 10 -14 13 -32 10 -14 -3 -32 -2 -38 2 -16 10 232 83 254 75 12 -5 12 -7 1 -14 -9 -6 -4 -8 14 -7 34 3 29 10 -22 33 -22 10 -40 22 -40 26 0 23 30 16 123 -26 56 -25 107 -49 113 -51 7 -3 17 19 26 55 11 43 12 61 4 64 -8 3 -7 9 3 20 20 26 7 20 -24 -9 -27 -25 -33 -26 -104 -22 -42 3 -65 2 -51 -2 14 -5 49 -8 77 -9 49 -1 53 -3 51 -24 -2 -22 -5 -23 -41 -15 -52 11 -119 46 -112 58 3 5 36 7 73 5 65 -4 66 -4 15 4 -78 13 -103 20 -103 31 0 20 41 30 112 27 62 -3 73 -6 70 -20 -4 -24 14 -21 32 5 28 40 21 43 -75 39 -156 -6 -194 15 -110 59 40 21 36 22 -27 8z m-172 -158 c0 -5 9 -10 20 -10 11 0 20 -4 20 -10 0 -5 9 -10 19 -10 11 0 23 -4 26 -10 4 -6 -5 -10 -20 -10 -14 0 -34 -5 -44 -12 -10 -6 -26 -8 -37 -4 -18 8 -18 8 1 16 11 4 26 5 33 3 6 -3 12 0 12 5 0 6 -13 10 -30 10 -16 -1 -30 -5 -30 -10 0 -4 -9 -8 -20 -8 -10 0 -31 -5 -45 -12 -19 -9 -28 -9 -37 0 -9 9 -7 12 8 13 16 0 15 2 -6 11 -23 9 -20 11 40 28 78 22 90 23 90 10z m-155 -39 c3 -5 -3 -12 -12 -14 -14 -4 -13 -5 5 -6 12 0 22 -6 22 -12 0 -7 11 -9 33 -5 17 4 42 7 55 6 49 -1 89 0 142 4 50 5 52 4 20 -5 -19 -6 -43 -11 -52 -12 -10 -1 -18 -5 -18 -9 0 -4 -10 -8 -22 -8 -13 0 -43 -7 -68 -16 -25 -9 -55 -16 -67 -16 -13 0 -23 -4 -23 -9 0 -12 -47 -11 -55 1 -3 6 1 10 10 10 9 0 13 4 10 10 -4 6 -13 5 -24 -2 -10 -6 -27 -8 -37 -4 -18 8 -18 8 1 16 18 7 18 9 3 15 -9 4 -14 13 -11 21 3 8 0 14 -6 14 -6 0 -11 -4 -11 -9 0 -5 -8 -12 -17 -14 -14 -4 -12 -5 5 -6 30 -1 28 -21 -3 -21 -14 0 -25 4 -25 9 0 5 -2 15 -5 23 -4 9 8 17 39 24 40 9 46 8 64 -13 15 -17 17 -23 6 -23 -8 0 -14 -5 -14 -10 0 -7 7 -7 21 0 11 7 27 9 35 6 9 -3 12 -1 9 4 -3 6 -13 10 -20 10 -16 0 -38 34 -28 44 9 9 31 7 38 -3z m-226 -60 c14 -9 -35 -21 -91 -23 -15 -1 -25 -5 -22 -9 5 -8 -25 -14 -53 -10 -7 1 -13 -5 -13 -14 0 -17 16 -20 25 -5 3 6 17 10 31 10 27 0 34 -19 7 -21 -23 -2 -35 -4 -53 -11 -65 -23 -84 -27 -99 -18 -9 5 -12 10 -8 10 5 0 5 5 1 11 -5 8 -9 8 -14 -1 -5 -9 -17 -10 -36 -5 -26 7 -27 8 -9 15 11 4 24 5 28 3 4 -3 13 0 20 5 7 6 30 14 52 18 51 10 42 8 95 23 25 7 55 13 68 13 12 0 22 4 22 9 0 11 31 11 49 0z m534 -25 c16 -13 16 -14 -4 -19 -12 -3 -31 0 -41 8 -19 13 -19 13 -1 18 10 3 20 5 23 6 3 0 13 -6 23 -13z m-403 -6 c13 -8 12 -10 -5 -11 -11 -1 -28 -2 -37 -1 -10 1 -18 -3 -18 -8 0 -6 -11 -10 -25 -10 -14 0 -33 -4 -43 -9 -33 -17 -92 -32 -101 -27 -5 4 -11 1 -13 -5 -2 -6 -17 -11 -33 -12 -17 -1 -32 -5 -35 -8 -5 -8 -27 -12 -47 -10 -24 2 -13 21 12 21 14 0 33 4 43 9 32 17 100 34 110 27 6 -3 12 -1 14 4 2 6 14 12 28 14 14 1 32 5 40 8 85 30 90 31 110 18z m334 -6 c9 -3 16 -10 16 -15 0 -11 -31 -12 -56 -2 -16 6 -16 7 2 14 10 4 20 8 21 8 1 1 8 -2 17 -5z m-286 -13 c19 -12 -14 -24 -41 -15 -13 4 -17 2 -13 -5 4 -7 -1 -11 -13 -11 -11 0 -31 -5 -45 -11 -14 -7 -33 -8 -43 -5 -17 7 -17 8 0 18 10 5 25 7 33 4 8 -3 14 -2 14 2 0 5 19 13 43 19 23 5 44 11 47 11 3 1 11 -2 18 -7z m107 -11 c5 -9 -18 -15 -28 -7 -2 1 -11 -4 -20 -12 -10 -8 -27 -11 -43 -7 -15 4 -23 3 -20 -3 8 -12 -20 -22 -39 -15 -8 4 -15 1 -15 -6 0 -8 -11 -11 -29 -8 -17 2 -28 1 -25 -4 7 -12 -46 -22 -57 -11 -7 7 7 15 38 24 26 7 53 14 58 14 6 1 17 4 25 7 41 17 83 27 90 23 5 -3 11 -1 15 5 8 13 42 13 50 0z m-276 -39 c19 -12 -21 -25 -50 -16 -14 5 -19 3 -15 -4 8 -13 -38 -26 -55 -15 -8 4 -9 3 -5 -4 7 -12 -10 -17 -46 -14 -10 1 -18 -2 -18 -7 0 -13 -36 -20 -51 -10 -18 11 -5 22 26 22 14 0 25 3 25 8 0 5 10 9 23 9 12 0 47 9 77 20 64 22 70 23 89 11z m254 -2 c18 -10 5 -17 -107 -50 -105 -32 -132 -36 -150 -27 -11 6 -16 13 -11 15 13 4 239 71 243 72 2 1 13 -4 25 -10z m-543 -9 c0 -5 -7 -10 -16 -10 -9 0 -38 -8 -65 -17 -36 -13 -51 -15 -60 -6 -8 8 -1 14 25 23 20 6 43 9 51 6 8 -3 15 -1 15 4 0 6 11 10 25 10 14 0 25 -4 25 -10z m38 -29 c4 -11 -2 -13 -27 -8 -18 4 -30 3 -26 -2 9 -15 -61 -34 -82 -22 -16 9 -15 11 10 20 16 6 36 11 45 11 9 0 24 5 32 10 20 13 42 9 48 -9z m246 0 c3 -5 -1 -12 -10 -15 -24 -9 -64 -7 -64 3 0 17 65 27 74 12z m-79 -21 c8 -13 -20 -24 -42 -16 -15 6 -15 8 -3 16 20 13 37 12 45 0z m-175 -15 c-1 -16 -70 -36 -89 -26 -14 8 -12 11 9 19 14 5 32 12 40 15 21 8 41 4 40 -8z m118 -4 c10 -6 7 -10 -13 -15 -14 -4 -30 -4 -35 -1 -6 4 -10 2 -10 -3 0 -5 -21 -17 -47 -25 -40 -14 -50 -14 -62 -2 -11 11 -4 15 45 26 33 7 63 16 69 21 12 10 36 10 53 -1z m131 -4 c9 -11 2 -16 -30 -26 -30 -9 -45 -9 -52 -2 -16 16 -31 13 -18 -3 15 -18 -24 -29 -53 -14 -17 9 -19 8 -9 -3 19 -20 -58 -44 -89 -28 l-22 12 24 9 c15 5 27 5 34 -2 5 -5 14 -10 20 -10 6 0 5 5 -2 12 -10 10 6 18 70 39 97 32 112 34 127 16z"/> <path d="M2355 1010 c-20 -9 -20 -9 0 -9 11 0 27 4 35 9 13 9 13 10 0 9 -8 0 -24 -4 -35 -9z"/> <path d="M2324 939 c-2 -4 -20 -10 -39 -13 -19 -4 -35 -11 -35 -16 0 -13 17 -13 26 1 3 6 17 9 30 6 13 -2 21 0 18 4 -3 5 8 9 25 9 16 0 32 4 36 10 3 5 -8 8 -26 7 -17 -1 -33 -5 -35 -8z"/> <path d="M1796 869 c3 -5 -3 -9 -13 -9 -17 -1 -17 -1 1 -11 12 -7 21 -8 25 -2 3 6 13 12 21 15 9 3 5 7 -12 10 -15 3 -25 1 -22 -3z"/> <path d="M2738 1194 c9 -4 10 -9 2 -19 -8 -10 -8 -15 1 -21 8 -4 9 -3 5 4 -4 7 -1 12 9 12 8 0 18 -7 21 -15 8 -19 28 -19 44 0 10 12 8 16 -14 25 -30 11 -88 23 -68 14z"/> <path d="M2245 1180 c-18 -8 -17 -9 8 -9 16 -1 26 3 22 9 -3 6 -7 10 -8 9 -1 0 -11 -4 -22 -9z"/> <path d="M161 1158 c-5 -14 -4 -27 3 -34 8 -9 13 -7 18 10 10 33 9 46 -2 46 -6 0 -14 -10 -19 -22z"/> <path d="M2372 1164 c-12 -8 -27 -24 -33 -36 l-11 -21 29 21 c35 25 59 52 46 52 -5 0 -19 -7 -31 -16z"/> <path d="M464 1073 c3 -94 1 -103 -16 -109 -12 -4 -28 1 -41 14 -34 29 -56 40 -34 15 23 -26 22 -38 -5 -52 -20 -10 -18 -11 17 -5 22 3 55 12 73 19 37 16 37 20 17 140 l-14 80 3 -102z"/> <path d="M2491 1138 c-13 -21 -14 -21 -27 -3 -14 18 -14 18 -14 -2 0 -11 -9 -28 -21 -39 -19 -17 -19 -19 -2 -25 23 -8 114 58 106 77 -8 21 -26 17 -42 -8z"/> <path d="M340 1130 l-35 -7 37 -2 c20 0 40 4 43 9 7 11 7 11 -45 0z"/> <path d="M123 1080 c0 -30 2 -43 4 -27 2 15 2 39 0 55 -2 15 -4 2 -4 -28z"/> <path d="M783 1108 c7 -5 1 -8 -14 -8 -28 0 -90 -37 -96 -57 -2 -6 6 -17 18 -23 16 -9 20 -9 14 -1 -30 50 187 98 305 68 28 -7 47 -16 43 -21 -4 -4 0 -4 9 -1 10 4 21 -1 30 -14 16 -23 28 -18 28 11 0 16 -11 23 -34 19 -4 -1 -17 1 -28 5 -16 5 -18 8 -7 15 9 6 1 7 -21 3 -20 -3 -30 -2 -23 3 6 4 -44 8 -112 8 -68 0 -118 -3 -112 -7z"/> <path d="M2305 1080 c-28 -7 -29 -8 -5 -10 23 -1 21 -3 -15 -21 l-40 -20 40 6 c51 7 116 35 109 46 -6 10 -46 10 -89 -1z"/> <path d="M0 1071 c0 -4 11 -6 25 -3 32 6 32 12 0 12 -14 0 -25 -4 -25 -9z"/> <path d="M825 1070 c-19 -4 1 -6 55 -6 47 1 90 -3 97 -9 7 -5 19 -15 27 -22 13 -11 26 -8 26 7 0 25 -141 46 -205 30z"/> <path d="M583 1011 c-40 -21 -75 -36 -78 -33 -3 3 -5 -2 -5 -11 0 -12 15 -7 67 24 37 21 73 39 80 39 7 0 13 5 13 10 0 13 6 15 -77 -29z"/> <path d="M2005 1014 c-33 -8 -120 -28 -193 -46 -73 -17 -131 -32 -129 -35 4 -3 337 69 392 86 47 15 -2 11 -70 -5z"/> <path d="M985 1003 c-47 -13 -73 -13 -215 1 -44 4 -50 3 -30 -6 57 -23 273 -18 298 7 11 11 -6 10 -53 -2z"/> <path d="M159 973 c-3 -21 3 -71 12 -99 8 -25 14 -31 29 -27 20 5 26 23 13 37 -5 4 -8 11 -8 14 -3 40 -42 103 -46 75z"/> <path d="M1050 958 c-25 -11 -76 -23 -113 -26 -38 -2 -63 -8 -56 -13 7 -4 26 -6 43 -4 104 13 136 14 130 3 -4 -7 -3 -8 5 -4 10 6 46 67 39 65 -2 0 -23 -10 -48 -21z"/> <path d="M1985 970 c-3 -5 3 -10 14 -10 12 0 21 5 21 10 0 6 -6 10 -14 10 -8 0 -18 -4 -21 -10z"/> <path d="M445 940 c-17 -7 -15 -9 13 -9 17 -1 32 4 32 9 0 12 -17 12 -45 0z"/> <path d="M1198 920 c29 -18 33 -25 27 -48 -4 -15 -13 -34 -21 -43 -8 -9 -11 -18 -8 -22 9 -8 -61 -42 -141 -67 -83 -26 -275 -38 -345 -21 -25 5 -49 6 -53 2 -6 -6 54 -16 218 -35 28 -3 28 -4 8 -11 -13 -4 -21 -11 -18 -15 3 -5 -11 -14 -30 -20 -19 -6 -35 -16 -35 -20 0 -5 -42 -30 -92 -55 -51 -25 -97 -50 -103 -56 -25 -25 100 27 216 90 72 39 143 74 157 77 105 23 157 48 213 103 50 50 56 60 51 89 -4 31 -42 72 -66 72 -6 0 4 -9 22 -20z m32 -90 c-6 -11 -16 -20 -22 -20 -6 0 -3 9 7 20 10 11 20 20 22 20 2 0 -1 -9 -7 -20z"/> <path d="M2678 898 c-16 -5 -28 -14 -28 -19 0 -5 -3 -8 -7 -8 -19 3 -33 -2 -33 -10 0 -6 13 -6 33 0 63 21 87 32 87 40 0 11 -17 10 -52 -3z"/> <path d="M1041 879 c-7 -12 -10 -23 -8 -26 3 -3 11 5 17 17 15 28 8 35 -9 9z"/> <path d="M584 878 c-4 -7 -4 -10 1 -6 4 4 14 0 21 -10 12 -15 12 -15 7 6 -6 24 -18 29 -29 10z"/> <path d="M737 853 c-12 -12 -7 -21 14 -26 17 -5 18 -3 7 11 -7 9 -13 18 -14 20 0 1 -4 -1 -7 -5z"/> <path d="M2790 849 c-15 -9 -436 -155 -476 -164 -12 -3 -113 -35 -224 -71 -116 -37 -212 -63 -224 -60 -11 3 -111 68 -221 146 -119 83 -201 135 -203 127 -1 -7 -32 -27 -67 -45 -92 -45 -85 -72 20 -87 59 -9 184 -62 346 -147 l116 -61 464 158 c255 86 469 162 475 167 13 10 26 48 16 47 -4 0 -14 -5 -22 -10z m-1190 -170 c88 -55 160 -103 160 -105 0 -2 -57 24 -127 60 -71 35 -152 71 -180 80 -29 10 -56 22 -59 27 -6 10 23 38 39 39 4 0 80 -45 167 -101z"/> <path d="M943 840 c-32 -13 -28 -17 12 -12 19 2 35 8 35 13 0 11 -18 11 -47 -1z"/> <path d="M0 794 c0 -41 141 -198 228 -254 35 -22 60 -45 57 -50 -4 -6 10 -10 34 -10 28 0 68 14 126 42 47 23 85 46 85 50 0 5 -8 4 -18 -1 -68 -35 -171 -81 -179 -81 -20 0 -134 80 -128 90 15 24 115 1 115 -27 0 -27 83 -7 185 45 55 28 97 51 94 52 -3 0 -54 -20 -113 -45 -60 -25 -114 -45 -122 -45 -19 0 -84 32 -84 42 0 4 5 8 12 8 6 0 9 2 6 5 -2 3 -30 -3 -62 -14 l-57 -18 -57 66 c-31 36 -69 79 -84 96 -16 16 -28 35 -28 40 0 6 38 -29 85 -76 47 -47 85 -81 85 -75 0 6 -40 52 -90 101 -87 87 -90 89 -90 59z"/> <path d="M320 770 c6 -11 28 -28 49 -38 34 -17 42 -17 62 -5 l24 13 -25 -5 c-17 -4 -40 3 -73 25 -39 25 -46 27 -37 10z"/> <path d="M2755 684 c-126 -47 -360 -128 -520 -180 -271 -88 -817 -271 -1283 -430 -175 -60 -197 -69 -163 -72 23 -2 50 3 63 11 13 8 64 27 113 41 50 15 99 31 110 36 43 20 220 81 249 85 43 8 59 13 151 45 44 16 130 44 190 63 61 19 119 39 129 43 13 5 17 4 12 -4 -5 -8 -2 -10 8 -6 9 3 13 11 9 17 -4 7 0 8 11 4 10 -4 62 12 129 39 104 43 170 67 272 96 89 26 347 113 450 153 61 23 156 60 213 80 59 23 102 44 102 52 0 7 -3 13 -7 12 -5 0 -111 -38 -238 -85z"/> <path d="M475 750 c-25 -11 1 -11 35 0 20 6 21 8 5 8 -11 0 -29 -3 -40 -8z"/> <path d="M543 736 c-45 -11 -84 -24 -87 -27 -11 -11 29 -7 74 6 25 8 61 18 80 22 19 5 30 11 25 15 -6 3 -47 -4 -92 -16z"/> <path d="M460 669 c-58 -17 -115 -33 -127 -36 -13 -3 -20 -9 -18 -14 3 -4 17 -4 31 1 14 6 37 10 52 10 15 0 41 7 57 16 17 9 55 25 85 34 89 29 34 21 -80 -11z"/> <path d="M280 670 c-43 -11 -66 -23 -68 -34 -4 -20 12 -21 42 -1 13 9 37 18 52 21 42 7 54 12 54 24 0 12 1 12 -80 -10z"/> <path d="M2890 636 c-47 -18 -286 -106 -532 -196 -438 -160 -570 -213 -312 -126 123 42 256 89 299 106 66 26 644 230 652 230 2 0 3 5 3 10 0 15 -18 11 -110 -24z"/> <path d="M670 650 c0 -5 -12 -16 -27 -24 -33 -18 -25 -21 12 -4 21 9 36 38 20 38 -3 0 -5 -4 -5 -10z"/> <path d="M1042 598 c-46 -11 -81 -22 -79 -25 3 -2 25 1 48 8 24 6 73 13 109 15 60 4 70 1 114 -26 26 -17 45 -26 41 -20 -10 16 -88 58 -120 63 -16 3 -67 -3 -113 -15z"/> <path d="M394 600 c-12 -5 -25 -13 -28 -19 -6 -9 62 14 73 25 8 7 -23 3 -45 -6z"/> <path d="M897 544 c-3 -3 -3 -12 0 -20 3 -8 0 -14 -7 -14 -19 0 -97 -69 -103 -90 -4 -15 7 -31 40 -60 25 -22 50 -37 56 -33 6 4 2 10 -11 16 -19 9 -42 53 -42 83 0 7 20 26 44 42 l43 30 45 -37 c45 -36 154 -127 173 -144 6 -6 -9 -7 -37 -3 -32 5 -48 4 -48 -3 0 -7 26 -11 64 -11 40 0 66 -4 68 -12 3 -8 19 -6 56 7 58 21 102 72 102 118 0 26 -34 107 -45 107 -3 0 4 -18 15 -40 42 -82 21 -117 -84 -144 l-59 -16 -33 29 c-18 16 -56 55 -85 87 -47 53 -121 114 -139 114 -4 0 -9 -3 -13 -6z m108 -75 l40 -43 -50 43 c-68 60 -73 65 -50 53 11 -6 38 -30 60 -53z"/> <path d="M1182 470 c-8 -13 -8 -20 1 -29 23 -23 53 -7 41 22 -9 24 -29 27 -42 7z"/> <path d="M357 433 c-12 -12 -7 -22 8 -17 8 4 15 10 15 15 0 11 -14 12 -23 2z"/> <path d="M175 391 c-22 -3 -35 -9 -30 -12 6 -3 33 0 60 6 53 13 37 16 -30 6z"/> <path d="M67 355 c38 -50 128 -135 143 -135 5 0 10 -6 10 -14 0 -8 16 -28 35 -45 19 -17 35 -33 35 -36 0 -13 124 -125 139 -125 10 0 -7 20 -41 51 -32 28 -58 54 -58 58 0 4 -21 29 -46 55 -25 27 -42 52 -37 56 11 10 116 43 231 71 51 13 89 25 83 27 -5 2 -44 -6 -87 -17 -44 -11 -108 -25 -144 -31 -36 -6 -76 -18 -89 -27 -23 -15 -26 -13 -90 49 -36 35 -77 73 -91 83 -21 17 -20 14 7 -20z"/> <path d="M1615 375 c-66 -17 -37 -17 45 0 36 7 52 13 35 13 -16 0 -52 -6 -80 -13z"/> </g> </svg> 