 <svg  version="1.0" xmlns="http://www.w3.org/2000/svg"  width="300.000000pt" height="300.000000pt" viewBox="0 0 300.000000 300.000000"  preserveAspectRatio="xMidYMid meet">  <g transform="translate(0.000000,300.000000) scale(0.050000,-0.050000)" fill="#f2f2f2" stroke="none"> <path d="M674 4911 c-42 -42 -43 23 16 -621 133 -1441 145 -1530 210 -1530 21 0 43 -9 49 -19 7 -11 23 -15 37 -10 23 8 2846 412 3081 440 150 18 145 -36 74 732 -80 863 -85 902 -119 913 -19 6 -22 1 -10 -18 9 -16 18 -167 20 -338 1 -170 23 -498 47 -727 53 -488 70 -449 -202 -484 -220 -29 -1490 -190 -2287 -291 -527 -66 -668 -93 -504 -96 134 -3 100 -42 -36 -42 -114 0 -149 23 -109 71 18 21 21 72 11 174 -7 80 -40 433 -73 785 -32 352 -68 707 -79 788 -11 82 -18 150 -15 153 9 9 781 11 1135 3 193 -4 280 -4 195 0 -250 12 -182 46 93 46 252 0 321 -10 301 -42 -6 -10 0 -18 15 -18 14 0 46 -6 71 -13 32 -8 45 -3 45 19 0 47 43 54 397 57 420 5 359 9 -647 46 -1641 60 -1677 61 -1716 22z"/> <path d="M1413 4752 c-10 -26 -52 -33 -237 -36 l-226 -3 223 -12 c123 -6 230 -17 237 -25 42 -41 -30 -56 -272 -56 l-259 0 13 -50 c7 -28 2 -63 -10 -78 -36 -43 15 -52 297 -52 l255 0 12 -155 c15 -197 -18 -240 -37 -48 -8 79 -22 143 -32 143 -10 0 -13 -20 -7 -45 6 -25 12 -99 15 -165 l5 -120 -223 -10 c-123 -5 -231 -18 -240 -28 -29 -30 438 7 487 39 25 16 48 29 53 29 4 0 14 -92 21 -205 33 -505 110 -1073 111 -825 1 74 -53 689 -70 801 l-12 81 416 25 c230 13 449 33 487 43 57 15 45 16 -60 9 -452 -29 -840 -32 -841 -6 0 15 -13 153 -29 307 -16 154 -29 306 -30 338 l0 58 555 -10 c305 -5 515 -3 465 4 -81 13 -857 48 -980 45 -27 -1 -55 8 -62 18 -7 12 -18 7 -25 -11z m-233 -176 c83 -2 161 2 175 11 39 24 65 -4 65 -68 0 -62 -17 -74 -53 -38 -12 12 -114 23 -229 25 -202 4 -208 5 -215 51 -6 42 0 46 50 36 32 -6 125 -14 207 -17z"/> <path d="M1800 4480 c-89 -14 -88 -14 36 -17 80 -2 122 4 114 17 -7 11 -23 19 -36 17 -13 -2 -64 -9 -114 -17z"/> <path d="M1595 4340 c-34 -40 -33 -40 300 -36 l335 4 -300 11 c-248 9 -293 15 -260 35 40 25 40 25 -1 25 -22 1 -56 -17 -74 -39z"/> <path d="M920 4291 c0 -39 9 -71 20 -71 11 0 20 26 20 59 0 32 -9 64 -20 71 -12 7 -20 -16 -20 -59z"/> <path d="M1133 4347 c-58 -58 14 -153 109 -143 96 9 100 56 5 51 -93 -6 -113 51 -22 61 30 4 55 15 55 25 0 22 -126 26 -147 6z"/> <path d="M1047 4319 c-24 -24 -12 -119 15 -119 10 0 18 32 18 70 0 77 -2 80 -33 49z"/> <path d="M1665 4245 c41 -4 109 -4 150 0 41 5 8 8 -75 8 -82 0 -116 -3 -75 -8z"/> <path d="M1690 4180 c-83 -21 165 -22 300 -1 91 14 84 16 -70 16 -93 0 -197 -7 -230 -15z"/> <path d="M1600 4080 c0 -37 12 -40 165 -36 l165 3 -140 12 c-136 12 -144 31 -20 47 33 4 8 9 -55 11 -103 3 -115 -1 -115 -37z"/> <path d="M1105 3965 c-147 -7 -159 -13 -126 -64 15 -24 23 -24 51 -1 21 17 101 31 211 36 98 5 173 17 167 26 -5 10 -44 16 -84 14 -41 -2 -139 -7 -219 -11z"/> <path d="M4633 3947 c-29 -29 -10 -102 37 -147 61 -57 39 -79 -80 -80 -44 0 -93 -10 -110 -21 -22 -16 10 -19 115 -15 192 10 209 30 113 136 -73 81 -75 85 -38 112 29 22 31 28 7 28 -17 0 -36 -6 -44 -13z"/> <path d="M1760 3760 c-82 -13 -84 -14 -20 -16 39 -1 106 6 150 15 103 21 6 22 -130 1z"/> <path d="M2810 3768 c-22 -3 -281 -21 -575 -39 -524 -32 -777 -64 -535 -67 61 -1 209 7 330 17 121 11 418 34 660 52 242 17 443 36 448 40 10 10 -266 7 -328 -3z"/> <path d="M3754 3767 c-21 -20 -14 -350 7 -397 13 -26 15 9 7 103 -11 130 -8 146 28 165 32 17 38 33 26 76 -15 55 -44 78 -68 53z"/> <path d="M3903 3757 c-2 -19 -8 -48 -15 -65 -10 -25 1 -32 46 -32 55 0 58 4 48 65 -8 52 -12 56 -18 20 -4 -25 -15 -45 -24 -45 -9 0 -21 20 -26 45 -5 26 -10 31 -11 12z"/> <path d="M4870 3700 c7 -11 43 -20 81 -20 38 0 69 9 69 20 0 11 -37 20 -81 20 -49 0 -76 -8 -69 -20z"/> <path d="M4361 3620 c-24 -46 -64 -299 -51 -321 28 -44 50 -13 50 70 0 207 280 215 313 10 14 -90 47 -107 47 -24 0 93 -68 180 -159 205 -127 34 -100 40 179 40 l260 0 0 -66 c0 -75 30 -114 87 -114 33 0 36 -8 21 -65 -10 -36 -16 -150 -13 -254 3 -131 -3 -193 -20 -204 -16 -10 -8 -21 25 -34 l50 -19 -56 -14 c-34 -9 -50 -22 -39 -33 104 -104 324 212 298 428 -18 152 -128 307 -170 240 -10 -17 -38 -21 -79 -13 -84 17 -85 76 -3 119 112 57 57 69 -338 74 -327 4 -389 0 -402 -25z m908 -265 c77 -118 53 -328 -49 -441 l-59 -64 0 65 c-1 36 8 65 19 65 31 0 24 80 -8 92 -15 6 -34 51 -41 99 -15 97 2 152 31 106 12 -18 17 -2 18 48 0 87 42 101 89 30z"/> <path d="M2250 3588 c-498 -43 -682 -69 -380 -54 132 6 315 14 406 17 92 3 172 10 179 17 6 7 44 12 83 12 40 0 86 9 102 20 37 24 35 24 -390 -12z"/> <path d="M5250 3509 c70 -32 110 -36 110 -11 0 9 -28 23 -62 30 -96 19 -114 12 -48 -19z"/> <path d="M346 3390 c0 -66 4 -91 8 -55 5 36 5 90 0 120 -4 30 -8 1 -8 -65z"/> <path d="M3806 3411 c10 -28 94 -39 118 -15 12 12 -6 22 -53 28 -44 5 -69 0 -65 -13z"/> <path d="M5441 3226 c0 -87 -11 -153 -27 -170 -43 -44 -116 -180 -104 -193 54 -54 171 164 169 316 -3 176 -36 218 -38 47z"/> <path d="M4293 3210 c-7 -16 -22 -131 -35 -254 l-24 -223 62 -55 c164 -147 927 -126 975 26 20 63 -15 82 -108 57 -96 -26 -163 -2 -163 59 0 20 -9 43 -21 50 -25 16 -4 -87 26 -125 11 -14 59 -25 107 -25 147 0 99 -34 -87 -63 -612 -93 -791 9 -695 395 33 134 31 188 -9 188 -9 0 -22 -13 -28 -30z"/> <path d="M2250 3178 c-77 -9 -225 -27 -330 -40 -104 -13 -203 -31 -220 -41 -21 -12 -15 -15 20 -8 28 5 145 19 260 30 412 39 470 47 500 63 37 21 -35 20 -230 -4z"/> <path d="M5590 3110 c51 -17 208 -23 198 -8 -5 10 -57 17 -114 16 -57 0 -95 -4 -84 -8z"/> <path d="M305 3077 c-39 -39 -29 -60 16 -32 35 21 46 19 72 -15 29 -39 30 -39 24 10 -8 56 -72 77 -112 37z"/> <path d="M1183 3059 c-59 -8 -117 -26 -130 -39 -18 -19 -5 -22 57 -13 44 7 132 18 195 25 63 7 115 21 115 30 0 21 -84 20 -237 -3z"/> <path d="M4110 3020 c-22 -9 -216 -18 -431 -19 l-391 -1 -19 -65 c-19 -64 -22 -65 -209 -97 -104 -17 -325 -55 -490 -84 -412 -73 -1381 -214 -1468 -214 -51 0 -83 14 -116 52 l-44 52 -52 -40 c-30 -24 -111 -50 -196 -64 -213 -35 -221 -40 -44 -29 88 5 195 19 237 31 98 27 97 30 113 -177 8 -96 15 -160 17 -142 2 21 35 40 95 56 109 27 111 47 3 22 -87 -19 -95 -13 -95 67 1 113 -44 98 579 203 225 38 416 62 424 54 28 -28 -57 -183 -107 -192 -192 -37 -206 -43 -200 -85 4 -28 -11 -49 -48 -65 -79 -36 -57 -41 141 -28 l179 11 -104 46 c-103 45 -149 107 -59 79 25 -8 62 -14 83 -14 46 1 122 -49 122 -80 0 -12 47 -41 105 -63 141 -53 153 -112 71 -328 -10 -26 -6 -26 29 -4 57 35 297 -55 292 -110 -3 -40 -22 -42 413 59 893 208 1154 273 1235 309 50 22 134 40 189 40 204 0 406 213 207 219 -10 1 -1 -12 20 -29 46 -35 13 -69 -67 -70 -25 0 -50 -13 -57 -29 -30 -79 -352 -49 -374 33 -12 46 33 94 90 95 17 1 44 16 59 34 25 29 23 31 -17 19 -31 -10 -45 -6 -46 12 0 14 -31 -7 -68 -47 -37 -40 -73 -68 -79 -62 -6 6 -24 0 -40 -13 -47 -40 -49 -3 -10 278 20 149 37 286 37 305 1 24 17 35 49 35 62 0 112 19 112 42 0 21 -16 21 -70 -2z m-138 -205 c-27 -323 -53 -451 -94 -461 -27 -7 -38 -28 -38 -72 0 -73 29 -81 62 -17 13 25 26 48 28 51 9 10 225 -91 237 -112 7 -11 -25 -25 -78 -33 -49 -7 -326 -72 -614 -144 -289 -71 -601 -147 -695 -168 l-170 -37 -110 50 c-318 146 -284 231 126 316 344 72 354 76 354 157 1 75 31 221 63 299 29 73 71 83 272 66 l170 -14 -12 -103 c-34 -274 -37 -322 -23 -308 20 18 89 419 77 440 -5 8 -44 15 -87 15 -153 0 -178 22 -155 139 l20 101 341 0 340 0 -14 -165z m-736 -10 c-5 -27 -30 -36 -111 -41 -126 -7 -131 -15 -165 -247 l-26 -172 -76 -23 c-42 -13 -81 -31 -88 -41 -6 -11 16 -11 54 0 97 28 117 20 31 -12 -42 -15 -150 -37 -240 -50 -91 -12 -176 -31 -189 -42 -34 -28 -135 -3 -178 45 -35 39 -35 40 21 18 31 -11 60 -17 65 -13 5 5 -57 33 -138 64 -165 62 -196 81 -196 123 0 19 13 25 39 16 32 -10 41 0 52 58 19 102 58 126 269 161 105 18 214 37 242 43 40 7 55 1 62 -26 10 -38 216 -162 216 -130 0 10 -20 28 -45 40 -30 14 -35 23 -15 25 17 2 4 9 -28 16 -186 41 -101 132 169 181 274 49 283 49 275 7z"/> <path d="M3720 2482 c128 -36 70 -85 -83 -71 -181 17 -166 -13 28 -56 147 -32 155 -30 155 37 0 58 -51 109 -106 106 -40 -2 -40 -3 6 -16z"/> <path d="M3540 2330 c0 -4 42 -30 93 -58 97 -55 147 -65 147 -32 0 11 -22 20 -49 20 -27 0 -55 10 -63 23 -10 16 3 19 44 10 37 -9 47 -7 28 4 -29 17 -200 45 -200 33z"/> <path d="M2475 2495 c-73 -57 -129 -108 -124 -113 12 -12 329 183 329 202 0 43 -85 6 -205 -89z"/> <path d="M2729 2898 c-19 -30 22 -66 59 -51 18 6 26 24 20 42 -14 36 -59 41 -79 9z"/> <path d="M384 2739 c-224 -40 -232 -90 -20 -120 193 -27 576 26 576 81 0 47 -366 73 -556 39z m273 -52 c82 -22 4 -46 -151 -47 -135 0 -209 26 -131 46 54 14 230 15 282 1z"/> <path d="M140 2180 c0 -264 -6 -480 -13 -480 -8 0 -30 15 -51 33 -20 18 -42 28 -49 20 -18 -18 72 -93 111 -93 18 0 66 6 107 13 78 13 104 47 37 47 -77 0 -102 23 -102 92 0 37 7 68 16 68 8 0 12 143 7 317 l-8 317 95 13 c53 7 137 13 188 13 181 1 146 34 -48 45 -126 8 -209 23 -241 44 l-49 32 0 -481z"/> <path d="M4132 2629 c-141 -52 -152 -77 -41 -93 59 -8 103 -6 110 6 7 11 28 13 47 6 29 -11 34 -4 29 44 -8 68 -39 76 -145 37z"/> <path d="M5670 2636 c-55 -10 -187 -40 -294 -67 -108 -28 -252 -49 -326 -49 -83 0 -128 -7 -120 -20 20 -32 196 -23 382 21 96 22 184 37 196 32 22 -8 -264 -101 -380 -125 -82 -16 -495 45 -587 87 -39 18 -80 37 -91 42 -11 5 -7 -6 9 -26 55 -67 340 -131 581 -131 189 0 617 125 557 162 -34 21 3 34 111 42 44 3 83 17 87 31 5 14 1 24 -8 22 -9 -1 -62 -11 -117 -21z"/> <path d="M380 2465 c0 -9 -20 -24 -44 -35 -24 -11 -47 -33 -52 -48 -7 -22 1 -20 38 5 90 63 201 15 115 -50 -98 -73 -24 -667 79 -628 15 6 51 17 79 24 51 13 51 13 -15 35 -94 31 -101 72 -13 72 39 0 76 9 83 20 8 12 -23 20 -78 20 -107 0 -125 23 -144 184 -10 86 -4 127 30 201 55 121 53 163 -9 192 -60 27 -69 28 -69 8z"/> <path d="M4272 2449 c-18 -47 -16 -49 29 -49 28 0 40 11 35 33 -8 46 -48 56 -64 16z"/> <path d="M1345 2386 c-36 -5 -65 -18 -65 -29 0 -24 129 -6 180 24 33 19 11 20 -115 5z"/> <path d="M5116 2355 c-28 -21 -29 -41 -11 -137 22 -120 -36 -254 -99 -229 -14 5 -26 3 -26 -6 0 -9 -34 -25 -75 -37 l-75 -21 90 -5 c50 -2 72 -9 50 -14 -22 -6 -49 -19 -60 -31 -14 -14 -4 -16 30 -7 117 30 220 37 220 15 0 -13 14 -23 30 -23 50 0 34 34 -29 60 -33 13 -70 37 -83 52 -44 53 65 30 251 -52 98 -44 190 -80 202 -80 28 0 70 148 64 223 l-5 53 -53 -38 c-30 -21 -91 -39 -140 -41 l-87 -3 88 -12 c89 -12 131 -52 76 -73 -40 -15 -172 21 -233 64 l-49 35 59 25 c58 25 58 25 9 26 -72 2 -116 33 -87 62 56 56 347 46 347 -12 0 -43 33 -35 69 15 50 72 41 76 -164 76 -284 1 -362 37 -230 109 l55 29 -51 1 c-28 1 -66 -10 -83 -24z"/> <path d="M5480 2349 c0 -19 9 -26 23 -17 13 8 35 -2 49 -21 29 -40 88 -29 88 16 0 28 -57 52 -125 53 -19 0 -35 -14 -35 -31z"/> <path d="M333 2347 c-19 -20 -16 -107 5 -107 15 0 41 64 42 105 0 19 -29 20 -47 2z"/> <path d="M4727 2313 c-31 -27 -51 -55 -44 -62 7 -7 38 9 70 36 31 27 51 55 44 62 -7 7 -38 -9 -70 -36z"/> <path d="M4990 2280 c-25 -27 -44 -34 -57 -21 -13 13 -33 -1 -58 -42 -20 -34 -33 -66 -28 -71 31 -31 213 93 213 146 0 40 -28 35 -70 -12z"/> <path d="M920 2101 c0 -180 -18 -205 -101 -143 -72 53 -86 53 -54 1 21 -33 20 -44 -5 -59 -43 -28 56 -26 136 2 80 28 91 66 63 226 -30 173 -39 166 -39 -27z"/> <path d="M1660 2219 c-192 -17 -339 -96 -299 -160 15 -24 23 -22 49 16 83 117 516 153 709 58 130 -63 121 -62 121 -13 0 30 -13 40 -56 40 -31 0 -66 10 -77 21 -30 30 -289 51 -447 38z"/> <path d="M4622 2165 c-34 -6 -41 -13 -22 -25 19 -11 10 -24 -32 -47 l-58 -32 70 12 c98 17 200 61 200 86 0 21 -67 24 -158 6z"/> <path d="M1710 2139 c-27 -11 7 -17 103 -18 101 -1 149 -10 167 -31 27 -33 80 -41 80 -12 0 42 -279 91 -350 61z"/> <path d="M1160 2023 c-181 -88 -169 -81 -155 -94 6 -7 77 23 158 65 179 93 165 84 155 94 -4 4 -75 -25 -158 -65z"/> <path d="M4670 2069 c-55 -16 -124 -28 -154 -29 -29 0 -59 -9 -67 -21 -7 -11 -29 -15 -49 -9 -20 6 -42 3 -48 -7 -7 -11 -57 -25 -112 -33 -108 -15 -113 -21 -69 -79 40 -54 36 -71 -17 -71 -25 0 -55 -7 -65 -17 -17 -15 -167 -63 -196 -63 -56 0 10 41 112 70 69 20 114 40 100 45 -14 4 -25 17 -25 28 0 26 -52 77 -79 77 -11 0 -21 -13 -21 -29 0 -19 -31 -33 -90 -42 -49 -7 -90 -23 -90 -34 0 -12 -28 -16 -70 -9 -38 6 -70 3 -70 -6 0 -20 -146 -65 -185 -57 -14 3 -54 -10 -89 -29 -35 -19 -80 -34 -100 -34 -20 0 -49 -10 -66 -22 -22 -16 -8 -18 55 -9 95 13 118 -17 27 -36 -31 -6 -81 -17 -110 -24 -46 -12 -52 -8 -47 32 3 24 -6 49 -20 53 -85 31 -9 -82 120 -178 372 -277 308 -257 571 -178 873 261 1477 448 1493 464 25 24 -2 23 -50 -2 -27 -15 -57 -13 -107 8 -72 30 -154 21 -276 -30 -58 -24 -59 -26 -19 -41 85 -31 -50 -97 -199 -97 -22 0 -59 -13 -84 -28 -111 -72 -514 -159 -514 -112 0 11 2 20 5 20 3 0 112 31 243 70 130 38 246 64 257 57 11 -7 26 -1 34 12 9 13 52 29 98 35 45 6 77 20 70 30 -6 11 -33 14 -59 7 -97 -24 -44 28 62 62 60 19 105 38 100 43 -11 12 -294 -59 -319 -80 -36 -31 -116 -19 -103 16 10 25 1 29 -45 19 -52 -12 -56 -8 -56 48 0 73 -22 101 -47 60 -12 -18 -11 -32 1 -36 30 -10 1 -43 -40 -43 -20 0 -41 18 -47 41 -20 76 167 112 206 39 16 -30 15 -40 -3 -40 -13 0 -19 -5 -13 -11 6 -6 37 -5 67 3 55 14 55 15 13 30 -26 10 -44 34 -44 57 0 55 46 52 70 -4 20 -46 243 -58 270 -15 6 9 33 20 60 24 44 8 45 11 14 25 -20 9 -56 7 -80 -4 -53 -24 -181 -65 -203 -65 -8 0 -10 14 -4 30 7 17 3 30 -8 30 -10 0 -19 8 -19 18 0 27 268 89 276 63 4 -11 24 -21 44 -21 20 0 40 -10 44 -23 5 -13 21 -19 37 -13 19 6 -1 25 -55 53 -96 49 -84 48 -216 12z m-621 -207 c13 -21 -56 -41 -143 -42 -35 0 -69 -9 -76 -20 -7 -11 -39 -20 -71 -20 -39 0 -59 -10 -59 -30 0 -36 9 -37 58 -7 21 13 53 17 74 8 30 -12 17 -21 -62 -43 -164 -47 -250 -57 -250 -28 0 15 -16 20 -45 13 -25 -6 -57 -4 -72 5 -19 12 -11 20 30 28 143 29 480 118 507 134 40 23 95 24 109 2z m1071 -52 c21 -25 17 -30 -26 -30 -57 0 -89 31 -49 47 41 16 49 14 75 -17z m-811 -8 c6 -10 -14 -22 -44 -28 -30 -6 -86 -20 -125 -31 -284 -85 -495 -142 -525 -142 -19 -1 -35 -10 -35 -21 0 -11 -26 -20 -59 -20 -32 0 -64 -9 -71 -20 -16 -25 -150 -27 -150 -2 0 17 134 58 230 70 22 3 54 10 70 17 17 6 93 29 170 51 77 22 217 62 310 90 197 57 214 60 229 36z m679 -14 c49 -19 38 -48 -17 -48 -54 0 -85 31 -46 47 14 5 27 11 28 11 2 1 18 -3 35 -10z m-583 -46 c-6 -25 112 -23 128 2 13 22 87 20 87 -1 0 -18 -97 -49 -163 -52 -18 -1 -46 -14 -63 -27 -16 -14 -37 -24 -47 -22 -9 3 -30 0 -47 -6 -172 -59 -220 -68 -220 -38 0 19 59 42 218 83 63 16 81 27 61 40 -15 9 -37 10 -48 1 -46 -34 -196 -65 -216 -45 -14 14 -2 25 37 34 32 7 99 25 148 40 98 29 133 26 125 -9z m-349 -92 c-3 -11 -25 -20 -49 -21 -24 0 -55 -11 -71 -24 -15 -12 -74 -29 -131 -36 -58 -8 -105 -22 -105 -32 0 -9 -27 -17 -60 -17 -33 0 -60 9 -60 20 0 11 18 20 40 20 22 0 56 8 75 18 113 60 373 111 361 72z m-568 -6 c11 -19 -247 -92 -264 -75 -22 22 29 52 117 69 121 24 135 24 147 6z m567 -69 c-10 -30 -65 -43 -111 -26 -28 11 -29 16 -3 32 44 28 124 24 114 -6z m-155 -45 c0 -17 -18 -30 -40 -30 -40 0 -52 21 -27 47 25 24 67 13 67 -17z m-351 -9 c16 -25 -53 -61 -118 -61 -71 0 -64 30 14 55 86 28 91 28 104 6z m240 -20 c12 -18 -50 -47 -82 -38 -9 3 -46 -10 -81 -29 -70 -37 -166 -46 -166 -15 0 11 38 29 85 41 47 12 103 30 125 39 53 24 105 25 119 2z m266 -15 c10 -32 -115 -65 -160 -42 -26 13 -35 9 -35 -13 0 -20 -19 -31 -51 -31 -29 0 -65 -13 -82 -30 -33 -34 -178 -41 -197 -10 -7 11 4 21 24 22 48 4 50 3 94 -14 26 -10 34 -8 25 8 -17 27 40 59 187 106 122 39 183 40 195 4z"/> <path d="M3770 1970 c-143 -36 -250 -67 -237 -68 28 -2 573 119 585 130 23 22 -114 -2 -348 -62z"/> <path d="M1261 1995 c-38 -10 -87 -32 -110 -48 -41 -30 -41 -31 4 -18 67 20 55 3 -40 -59 -137 -90 -192 -150 -137 -150 24 0 66 -15 93 -33 45 -29 48 -29 38 0 -8 19 8 51 39 83 28 28 60 68 72 90 12 21 50 47 85 57 36 9 63 28 60 40 -8 36 14 28 82 -30 l63 -53 -74 11 c-87 14 -156 0 -156 -33 0 -15 28 -20 77 -16 84 8 153 -52 219 -190 37 -79 27 -94 -45 -67 -29 12 -74 21 -99 21 -62 0 -103 86 -62 128 17 16 48 24 73 17 30 -8 39 -4 29 12 -19 31 -103 29 -136 -4 -14 -14 -39 -22 -55 -17 -20 7 -16 -10 14 -58 51 -81 61 -87 209 -127 62 -17 127 -45 143 -61 37 -37 55 -37 170 -1 51 16 145 39 208 52 64 12 110 30 104 40 -11 18 30 179 45 179 85 0 104 -83 33 -139 -61 -48 -37 -56 29 -10 54 38 57 117 6 153 -20 15 -41 44 -46 66 -6 29 -19 11 -47 -65 -22 -61 -51 -106 -69 -107 -16 0 -93 -13 -170 -28 l-140 -28 149 2 c214 4 198 -33 -27 -61 -255 -31 -261 -27 -331 246 -22 88 -19 96 44 102 378 36 575 73 575 109 0 12 -20 11 -51 0 -69 -27 -107 -25 -69 2 22 16 6 18 -60 9 -49 -7 -93 -20 -96 -29 -3 -9 -48 -9 -100 -1 -148 25 -327 34 -309 16 9 -9 93 -25 186 -36 l169 -19 -180 8 c-99 4 -216 20 -260 36 -57 20 -100 22 -149 9z"/> <path d="M320 1907 c0 -150 50 -245 101 -194 21 21 -31 184 -72 226 -25 26 -29 22 -29 -32z"/> <path d="M2071 1908 c-43 -16 -126 -34 -184 -41 -58 -7 -101 -21 -95 -31 6 -9 27 -13 45 -7 19 6 95 12 170 14 106 3 140 12 154 39 36 67 28 70 -90 26z"/> <path d="M4621 1868 c-89 -28 -152 -68 -106 -68 12 0 28 8 34 18 6 10 56 24 111 32 55 8 100 22 100 32 0 23 -30 20 -139 -14z"/> <path d="M5355 1797 c-30 -11 -55 -29 -55 -39 0 -10 -20 -19 -45 -20 -26 0 -33 -6 -18 -12 35 -14 177 32 206 67 27 33 -5 34 -88 4z"/> <path d="M2430 1708 c-16 -40 -30 -81 -30 -92 0 -82 -427 -183 -777 -185 -285 -1 -288 -15 -8 -42 80 -8 145 -20 145 -28 0 -24 -66 -75 -115 -90 -25 -8 -45 -21 -45 -29 0 -9 -85 -60 -190 -114 -104 -54 -190 -104 -190 -112 0 -20 115 30 420 183 149 75 324 151 390 170 203 59 409 194 403 266 -2 19 8 33 22 30 16 -3 25 18 25 55 0 79 -13 76 -50 -12z"/> <path d="M5597 1711 c-36 -37 -1419 -496 -1739 -577 -137 -35 -103 -51 -588 277 l-368 248 -72 -44 c-39 -25 -100 -63 -135 -86 -103 -65 -84 -93 95 -140 186 -48 367 -125 693 -294 l233 -121 577 196 c1281 436 1336 458 1324 520 -4 18 -13 28 -20 21z m-2412 -345 c324 -202 338 -225 54 -86 -114 55 -259 120 -323 143 -116 43 -137 68 -92 113 33 33 44 28 361 -170z"/> <path d="M0 1593 c0 -46 114 -200 233 -313 121 -115 110 -98 -79 122 -160 186 -142 195 36 18 83 -82 150 -141 150 -132 0 22 -302 332 -323 332 -10 0 -17 -12 -17 -27z"/> <path d="M640 1544 c0 -30 127 -104 177 -104 24 0 43 9 43 20 0 11 -17 20 -39 20 -21 0 -71 19 -110 42 -39 23 -71 33 -71 22z"/> <path d="M5620 1408 c-192 -71 -984 -342 -1760 -601 -2196 -735 -2400 -807 -2269 -807 21 0 206 59 409 131 204 72 442 153 530 180 88 27 358 114 600 193 242 78 454 145 470 147 37 4 51 9 250 79 88 31 435 148 770 261 862 288 1380 487 1380 530 0 28 -2 28 -380 -113z"/> <path d="M1060 1467 c-60 -16 -119 -39 -130 -51 -25 -25 50 -11 220 43 143 44 70 51 -90 8z"/> <path d="M600 1352 c-131 -37 -189 -71 -163 -97 15 -15 31 -14 53 5 18 15 74 37 125 50 51 13 96 34 101 47 9 27 1 27 -116 -5z"/> <path d="M854 1321 c-223 -64 -270 -91 -124 -71 89 12 370 106 370 123 0 14 -55 2 -246 -52z"/> <path d="M5280 1089 c-368 -137 -808 -300 -976 -362 -168 -62 -302 -116 -297 -121 5 -4 250 79 546 185 584 210 1429 509 1440 509 4 0 7 9 7 20 0 34 -33 24 -720 -231z"/> <path d="M940 1199 c-226 -93 -234 -93 -329 -28 -60 40 -86 47 -128 33 -50 -16 -49 -18 31 -31 53 -8 95 -29 115 -57 29 -42 36 -43 126 -19 100 26 385 153 385 172 0 6 -2 10 -5 9 -3 -1 -90 -37 -195 -79z"/> <path d="M2070 1190 l-80 -27 90 12 c50 7 141 13 203 14 62 0 103 8 90 16 -37 23 -216 14 -303 -15z"/> <path d="M371 1161 c-7 -10 7 -29 30 -42 23 -12 78 -54 121 -93 69 -62 88 -70 151 -59 80 13 379 148 363 164 -5 5 -90 -28 -188 -73 l-178 -82 -86 45 c-47 25 -107 71 -134 102 -52 62 -62 67 -79 38z"/> <path d="M1800 1061 c0 -21 -16 -43 -36 -50 -55 -17 -184 -152 -184 -192 0 -20 34 -64 75 -98 86 -71 131 -82 70 -16 -89 95 -80 153 37 241 l71 53 202 -169 c243 -203 256 -220 158 -202 -46 9 -73 6 -73 -7 0 -12 44 -21 101 -21 56 0 117 -8 135 -18 92 -49 300 97 312 219 4 38 3 49 -2 24 -12 -62 -90 -118 -221 -155 l-111 -33 -187 186 c-103 102 -187 179 -187 169 0 -9 -26 12 -58 46 -66 71 -102 79 -102 23z"/> <path d="M2368 931 c-14 -37 6 -71 42 -71 37 0 53 29 38 68 -15 40 -66 42 -80 3z"/> <path d="M156 687 c49 -70 239 -247 265 -247 9 0 21 -16 28 -36 12 -38 323 -357 379 -388 31 -17 32 -15 8 22 -14 23 -32 42 -40 42 -18 0 -296 321 -296 342 0 29 69 55 323 126 136 38 237 70 224 71 -21 1 -483 -103 -584 -131 -37 -11 -66 5 -150 85 -56 54 -125 116 -152 138 l-49 39 44 -63z"/> </g> </svg> 