 <svg version="1.0" xmlns="http://www.w3.org/2000/svg"  width="900.000000pt" height="780.000000pt" viewBox="0 0 900.000000 780.000000"  preserveAspectRatio="xMidYMid meet">  <g transform="translate(0.000000,780.000000) scale(0.100000,-0.100000)" fill="#000000" stroke="none"> <path d="M4675 7365 c-5 -3 -64 -14 -130 -24 -123 -20 -223 -42 -262 -57 -24 -10 -92 -67 -196 -164 -45 -42 -80 -86 -99 -125 -40 -78 -106 -175 -135 -198 -31 -25 -102 -173 -114 -239 -23 -128 -31 -351 -19 -558 8 -144 9 -213 1 -232 -9 -23 -7 -32 16 -58 20 -24 27 -47 34 -111 9 -78 8 -82 -21 -142 -16 -34 -30 -74 -30 -89 0 -37 36 -118 53 -118 12 0 15 35 20 178 3 108 12 200 21 237 8 33 15 81 16 107 0 61 26 193 44 226 60 114 75 145 96 202 12 36 22 79 22 95 -3 67 28 186 59 233 90 134 174 182 362 208 100 13 149 9 286 -26 76 -19 200 -22 224 -5 33 23 113 18 182 -11 33 -14 76 -31 95 -37 19 -6 50 -22 69 -34 19 -13 39 -23 46 -23 7 0 18 -13 24 -28 7 -16 25 -43 41 -61 32 -34 51 -103 51 -186 0 -49 13 -83 86 -226 12 -26 23 -56 23 -68 0 -12 7 -33 16 -46 20 -30 16 -31 -34 -5 -36 19 -47 19 -192 10 -139 -9 -244 -22 -293 -36 -20 -6 -51 -63 -62 -114 -4 -19 -19 -57 -33 -83 -27 -53 -27 -25 -6 -437 l6 -105 -36 -47 c-23 -30 -53 -55 -81 -67 -62 -27 -59 -67 6 -80 29 -6 34 -11 35 -36 1 -34 30 -95 45 -95 16 0 61 -49 54 -60 -3 -6 -23 -10 -43 -10 -21 0 -55 -9 -75 -19 -60 -30 -171 -47 -213 -32 -27 10 -41 10 -67 0 -38 -13 -87 -5 -87 14 0 7 11 28 25 47 27 37 25 50 -9 50 -74 0 -136 -65 -136 -142 0 -69 10 -77 65 -50 25 12 52 22 61 22 8 0 32 9 53 19 41 21 81 22 285 1 118 -12 151 -28 141 -68 -11 -48 -26 -54 -132 -57 -136 -3 -201 -37 -134 -71 13 -7 107 -15 218 -19 188 -7 196 -7 223 14 38 27 60 18 60 -24 0 -19 -4 -36 -9 -39 -5 -3 -12 -18 -16 -33 -7 -28 -119 -143 -139 -143 -6 0 -38 -13 -71 -29 -85 -41 -211 -63 -326 -56 -110 7 -195 32 -270 80 -30 19 -65 35 -77 35 -40 0 -83 27 -172 105 -91 81 -128 125 -160 193 -10 23 -26 42 -33 42 -23 0 -170 -80 -187 -101 -3 -4 -23 -18 -45 -33 -22 -15 -85 -68 -139 -119 -55 -51 -115 -100 -135 -110 -20 -11 -78 -28 -129 -39 -115 -24 -157 -43 -279 -125 -92 -62 -221 -129 -283 -148 -95 -29 -210 -83 -288 -136 -24 -16 -46 -29 -50 -29 -5 0 -49 -40 -99 -90 -51 -49 -94 -90 -97 -90 -2 0 -36 -21 -75 -48 -69 -47 -102 -84 -175 -194 -21 -32 -42 -58 -47 -58 -5 0 -9 -5 -9 -11 0 -6 -26 -41 -58 -78 -56 -63 -120 -162 -172 -265 -14 -26 -35 -58 -47 -70 -13 -11 -23 -25 -23 -29 0 -5 -20 -51 -45 -104 -25 -52 -45 -101 -45 -109 0 -8 -7 -17 -15 -20 -8 -4 -15 -12 -15 -19 0 -6 -13 -31 -30 -53 -16 -23 -30 -45 -30 -49 0 -11 -123 -202 -154 -239 -14 -18 -26 -36 -26 -42 0 -5 -7 -15 -15 -22 -8 -7 -15 -19 -15 -27 0 -8 -17 -39 -38 -70 -65 -96 -232 -417 -232 -447 0 -8 -7 -16 -15 -20 -8 -3 -15 -12 -15 -20 0 -40 -97 -233 -157 -312 -29 -39 -53 -77 -53 -86 0 -9 -7 -21 -15 -28 -8 -7 -15 -18 -15 -25 0 -6 -12 -30 -27 -51 -16 -21 -46 -76 -68 -122 -21 -45 -43 -82 -47 -82 -4 0 -8 -8 -8 -18 0 -10 -13 -36 -30 -58 -16 -21 -30 -46 -30 -55 0 -8 -7 -24 -15 -35 -8 -10 -15 -30 -15 -42 0 -13 -20 -62 -45 -110 -31 -58 -45 -98 -45 -124 0 -21 -7 -55 -15 -75 -10 -24 -15 -70 -15 -142 0 -80 -4 -112 -15 -128 -9 -13 -18 -52 -22 -88 l-6 -65 227 0 c124 0 226 4 226 8 0 17 126 144 189 191 68 50 179 110 241 130 116 36 271 50 352 31 24 -6 69 -15 101 -21 34 -6 69 -20 86 -35 40 -33 61 -31 61 6 0 29 29 70 50 70 5 0 25 13 43 30 35 30 50 65 96 215 29 97 52 130 116 166 30 17 65 44 78 61 41 54 89 108 97 108 4 0 15 -28 24 -62 9 -35 23 -88 32 -118 25 -88 34 -205 22 -317 -7 -72 -6 -139 1 -226 7 -68 9 -149 5 -180 l-7 -57 2205 0 2205 0 67 50 c70 53 78 68 48 87 -14 8 -21 29 -26 80 -3 37 -15 96 -26 130 -17 55 -19 82 -14 205 3 79 6 225 7 325 1 128 6 186 14 194 21 21 57 -5 94 -66 77 -128 80 -140 86 -264 6 -130 21 -187 62 -240 45 -57 51 -75 51 -150 0 -38 4 -72 8 -75 5 -3 30 6 57 19 107 55 292 19 480 -93 60 -35 193 -140 229 -181 19 -21 24 -21 423 -21 l403 0 0 58 c0 63 -11 164 -35 316 -8 55 -22 167 -30 251 -10 95 -23 171 -36 205 -11 30 -25 69 -31 85 -6 17 -14 35 -18 40 -9 12 -37 135 -45 196 -4 36 -17 59 -56 105 -27 32 -54 76 -60 98 -6 21 -14 46 -19 55 -19 34 -49 110 -75 191 -26 81 -39 114 -91 225 -12 28 -28 61 -33 75 -6 14 -31 61 -55 105 -91 164 -116 216 -116 240 0 37 -35 118 -79 182 -21 32 -48 78 -59 103 -20 46 -26 62 -63 185 -21 68 -66 188 -94 250 -7 17 -34 61 -59 100 -25 38 -46 73 -46 77 0 5 -15 26 -34 46 -88 96 -172 234 -222 366 -23 61 -68 106 -180 181 -48 32 -112 80 -143 107 -31 26 -59 48 -64 48 -11 0 -121 51 -282 130 -77 38 -153 73 -170 76 -16 4 -52 18 -80 31 -79 38 -125 52 -195 59 -82 8 -91 14 -157 84 -47 52 -63 61 -155 96 -115 42 -241 115 -271 156 -26 35 -24 65 8 163 37 110 54 145 87 179 15 17 32 45 37 63 5 18 19 46 30 62 12 16 21 34 21 40 0 6 10 30 21 53 52 105 70 148 91 218 27 93 31 220 7 265 -48 89 -50 96 -44 125 3 16 13 71 20 122 8 51 23 125 34 163 36 125 51 226 41 270 -5 22 -10 74 -10 116 0 42 -7 98 -15 125 -8 27 -15 67 -15 89 0 64 -32 175 -70 245 -52 96 -181 222 -320 312 -167 109 -291 163 -488 213 -60 15 -355 31 -377 20z m749 -1541 c9 -4 21 -15 27 -26 11 -20 8 -20 -88 -16 -68 2 -105 8 -121 19 -12 9 -19 19 -15 22 8 9 176 9 197 1z m-74 -84 c0 -6 -32 -10 -76 -10 -47 0 -73 4 -69 10 3 6 37 10 76 10 39 0 69 -4 69 -10z m-132 -73 c6 -6 13 -24 17 -39 4 -15 18 -34 31 -43 28 -18 33 -41 7 -30 -10 4 -36 12 -58 17 -31 7 -44 16 -54 39 -12 26 -11 32 4 50 21 22 38 24 53 6z m30 -176 c45 -23 186 -44 302 -46 108 -1 128 -3 148 -20 23 -20 30 -55 12 -55 -6 0 -22 7 -35 16 -29 19 -36 -1 -8 -21 17 -12 17 -15 0 -49 -9 -20 -17 -55 -17 -77 0 -25 -14 -69 -40 -124 -22 -47 -40 -88 -40 -92 0 -5 -16 -23 -35 -42 -19 -19 -35 -39 -35 -46 0 -7 -17 -32 -39 -56 -21 -24 -41 -54 -45 -66 -4 -13 -18 -26 -32 -29 -13 -3 -24 -9 -24 -13 -7 -135 -44 -210 -102 -206 -18 2 -40 5 -48 8 -8 3 -22 7 -30 10 -9 3 -4 8 15 12 16 5 47 26 68 49 35 36 39 44 35 80 -8 67 -58 135 -137 186 -84 54 -92 82 -39 129 43 38 42 77 -3 172 -35 72 -36 76 -28 154 4 44 8 88 8 97 2 35 31 51 84 44 27 -4 56 -11 65 -15z m-193 -325 c0 -37 -15 -42 -46 -17 -20 16 -22 21 -10 35 8 9 24 16 35 14 16 -2 21 -10 21 -32z m-1032 -759 c48 -86 149 -196 235 -257 44 -31 219 -122 276 -144 62 -22 159 -81 174 -104 15 -23 15 -27 -2 -55 -17 -31 -17 -32 3 -48 11 -9 41 -20 65 -23 25 -4 48 -11 51 -16 3 -5 1 -30 -5 -56 -11 -47 -10 -48 20 -72 16 -13 30 -29 30 -37 0 -18 33 -25 117 -25 50 0 76 -5 86 -15 14 -13 37 -96 37 -130 0 -22 -38 -53 -112 -92 -60 -31 -195 -153 -220 -198 -19 -33 -51 -15 -144 81 -52 52 -119 114 -149 137 -85 64 -187 202 -261 352 -35 72 -87 171 -115 220 -83 150 -108 207 -129 300 -19 88 -28 265 -12 265 4 0 28 -38 55 -83z m-2683 -2606 c0 -3 -5 -13 -10 -21 -9 -13 -12 -12 -25 4 -11 15 -12 22 -3 27 12 8 38 1 38 -10z m3266 -327 c-4 -12 -10 -14 -17 -7 -5 5 -7 17 -3 27 4 12 10 14 17 7 5 -5 7 -17 3 -27z m-82 -1156 c18 -34 20 -48 9 -48 -15 1 -45 51 -39 66 8 20 13 18 30 -18z"/> <path d="M4240 6000 c-100 -8 -206 -57 -225 -103 -16 -39 -13 -44 19 -24 68 45 93 47 339 26 l232 -20 18 22 c23 29 19 39 -31 66 -32 18 -69 26 -145 33 -56 5 -109 9 -117 8 -8 0 -49 -4 -90 -8z"/> <path d="M4368 5801 c-13 -11 -51 -27 -83 -36 -33 -10 -69 -24 -80 -31 -11 -8 -25 -14 -33 -14 -20 0 -93 -72 -90 -89 4 -19 38 -29 106 -30 51 -1 73 15 30 21 -18 2 -22 9 -20 27 1 13 10 30 20 37 15 12 21 9 48 -21 24 -27 41 -36 77 -41 53 -8 77 5 77 41 0 37 24 49 46 24 14 -17 16 -23 6 -27 -8 -2 -29 -18 -47 -36 -18 -17 -40 -37 -49 -44 -23 -18 -11 -32 27 -31 50 1 101 23 114 49 7 13 22 28 34 32 16 6 20 14 15 32 -4 15 0 28 9 36 8 7 15 20 15 29 0 22 -41 61 -64 61 -10 0 -24 7 -32 15 -22 22 -96 19 -126 -4z"/> <path d="M4130 5763 c-32 -22 -59 -56 -54 -65 6 -9 74 31 74 42 0 5 9 12 20 15 11 3 20 11 20 16 0 15 -34 10 -60 -8z"/> <path d="M4604 5121 c-41 -25 -47 -36 -28 -51 12 -11 21 -10 50 3 19 10 45 17 58 17 32 0 39 10 19 32 -21 23 -60 23 -99 -1z"/> <path d="M4730 4956 c-31 -38 28 -97 65 -66 16 14 5 45 -24 67 -21 16 -26 16 -41 -1z"/> <path d="M1730 244 c0 -9 52 -67 116 -130 109 -108 118 -115 151 -112 l36 3 -120 119 c-66 65 -127 122 -134 127 -22 14 -49 10 -49 -7z"/> </g> </svg> 